# xmcd
#
# Track frame offsets:
#	150
#	16609
#	30617
#	48364
#	62674
#	81019
#	102134
#	117694
#	134532
#	153254
#	170874
#	193297
#
# Disc length: 2744 seconds
#
# Revision: 0
# Processed by: cddbd v1.5.1PL2 Copyright (c) Steve Scherf et al.
# Submitted via: dBpowerAMP V4.0
#
DISCID=9f0ab60c
DTITLE=Chris Golden - "Down The Road"
DYEAR=1900
DGENRE=
TTITLE0=Simple Life
TTITLE1=Dixie Lilly
TTITLE2=House Full of Love
TTITLE3=Can't Stop Thinkin"Bout That 
TTITLE4=Stones
TTITLE5=Something So Feminine About A Mandolin
TTITLE6=Down The Road
TTITLE7=It Won't Bring Her Back
TTITLE8=When You and I Were Young Maggie
TTITLE9=I'll Be True To You
TTITLE10=Old Country Church
TTITLE11=Snooky Toot
EXTD=The Oak Ridge Boys
EXTT0=
EXTT1=
EXTT2=
EXTT3=
EXTT4=
EXTT5=
EXTT6=
EXTT7=
EXTT8=
EXTT9=
EXTT10=
EXTT11=
PLAYORDER=
